/* XPM */
static char *BA1689687497[] = {
/* columns rows colors chars-per-pixel */
"64 64 2 1 ",
"  c #0E0912",
". c #2B3C3D",
/* pixels */
"................................................................",
"................................................................",
"................................................................",
"................................................................",
".................        .......................................",
".............               ....................................",
".............                            .......................",
".............                                 ..................",
".............                                   ................",
".............                                    ...............",
".............                                    ...............",
".............                                    ...............",
".............                                     ..............",
"...............       .............               ..............",
"...............       ..................          ..............",
"...............       ...................         ..............",
"...............       ....................        ..............",
"...............       ....................        ..............",
"...............       ...................         ..............",
"...............       ..................          ..............",
"...............       .................           ..............",
"...............       .................          ...............",
"...............       ...............            ...............",
"...............       ..............             ...............",
"...............       ..........                ................",
"...............                                .................",
"..............                                ..................",
"..............                                ..................",
"..............                               ...................",
"..............                               ...................",
"..............                                 .................",
"..............                                  ................",
"..............                                  ................",
"..............       ..                         ................",
"..............       ........                    ...............",
"..............       .............               ...............",
"..............       .................           ...............",
"..............       ...................         ...............",
"..............       ....................        ...............",
"..............       ....................        ...............",
"..............       .....................       ...............",
"..............       .....................       ...............",
"..............       ....................        ...............",
"..............       ....................        ...............",
"..............       ...................         ...............",
"..............       ..................          ...............",
"..............       .................           ...............",
"..............       .................           ...............",
"..............       ...............            ................",
"..............       .............              ................",
"..............       ...........               .................",
"..............                                 .................",
"..............                               ...................",
"..............                               ...................",
"..............                              ....................",
"..............                             .....................",
".................                       ........................",
".................                      .........................",
"................................................................",
"................................................................",
"................................................................",
"................................................................",
"................................................................",
"................................................................"
};
