/* XPM */
static char *GU1689687498[] = {
/* columns rows colors chars-per-pixel */
"64 64 2 1 ",
"  c #0E0912",
". c #80405A",
/* pixels */
"................................................................",
"................................................................",
"................................................................",
"................................................................",
"................................................................",
"......................                     .....................",
"....................                       .....................",
"...................                        .....................",
".................                          .....................",
"................                           .....................",
"...............                            .....................",
"...............                            .....................",
"..............               ...................................",
"..............             .....................................",
".............            .......................................",
"............            ........................................",
"...........            .........................................",
"...........           ..........................................",
"..........            ..........................................",
"..........           ...........................................",
"..........          ............................................",
"..........         .............................................",
"..........         .............................................",
"..........        ..............................................",
"..........        ..............................................",
"..........       ...............................................",
"..........       ...............................................",
"..........       ...............................................",
".........        ...............................................",
".........        ...............................................",
".........        ...............................................",
".........        ...............................................",
".........        ...............................................",
".........        ...............................................",
".........       ........                       .................",
".........        .......                        ................",
".........        .......                        ................",
".........        .......                        ................",
".........         ......                        ................",
".........         ......                        ................",
".........         ......                        ................",
"..........        ......................        ................",
"..........         .....................        ................",
"..........         .....................        ................",
"...........        .....................        ................",
"...........         ....................        ................",
"...........           ..................        ................",
"...........            .................       .................",
"............             ..............        .................",
"............                ...........        .................",
"............                                   .................",
".............                                  .................",
"..............                                 .................",
"...............                                .................",
".................                             ..................",
"...................                           ..................",
".....................                         ..................",
"................................................................",
"................................................................",
"................................................................",
"................................................................",
"................................................................",
"................................................................",
"................................................................"
};
